# xmcd
#
# Track frame offsets:
#	150
#	26458
#	57155
#	88333
#	109875
#	128877
#	155207
#	174964
#	223995
#	248572
#	272481
#	296505
#	317228
#
# Disc length: 4593 seconds
#
# Revision: 0
# Processed by: cddbd v1.5.1PL2 Copyright (c) Steve Scherf et al.
# Submitted via: dBpowerAMP V4.0
#
DISCID=bf11ef0d
DTITLE=John Mayall's Bluesbreakers - Dream About the Blues
DYEAR=2001
DGENRE=Blues
TTITLE0=Ridin on the L&N
TTITLE1=Help Me
TTITLE2=Racehorse Man
TTITLE3=All Your Love
TTITLE4=I Ain't Got You
TTITLE5=Wild About You
TTITLE6=It Ain't Right
TTITLE7=Room to Move
TTITLE8=Chicago Line
TTITLE9=Gimme One More Day
TTITLE10=One Life to Live
TTITLE11=The Last Time
TTITLE12=Dream About the Blues
EXTD=
EXTT0=
EXTT1=
EXTT2=
EXTT3=
EXTT4=
EXTT5=
EXTT6=
EXTT7=
EXTT8=
EXTT9=
EXTT10=
EXTT11=
EXTT12=
PLAYORDER=
